<?xml version="1.0" encoding="utf-8"?>
<!-- Generator: Adobe Illustrator 21.0.0, SVG Export Plug-In . SVG Version: 6.00 Build 0)  -->
<svg version="1.1" id="Layer_1" xmlns="http://www.w3.org/2000/svg" xmlns:xlink="http://www.w3.org/1999/xlink" x="0px" y="0px"
	 viewBox="0 0 512 512" style="enable-background:new 0 0 512 512;" xml:space="preserve">
<path d="M444.2,125.3c-3.7-8.6-9.7-15.9-17.4-21.1c-3.8-2.6-8.1-4.6-12.6-6c-4.5-1.4-9.3-2.2-14.3-2.2c-5.6,0-10.9,0.9-15.9,2.7V80
	c0-6.6-1.3-12.9-3.8-18.7c-3.7-8.6-9.7-15.9-17.4-21.1c-3.8-2.6-8.1-4.6-12.6-6c-4.5-1.4-9.3-2.2-14.3-2.2c-6.2,0-12.1,1.2-17.6,3.4
	c-0.6-2.1-1.3-4.1-2.1-6.1c-3.7-8.6-9.7-15.9-17.4-21.1c-3.8-2.6-8.1-4.6-12.6-6C281.7,0.8,276.9,0,272,0c-6.6,0-12.9,1.3-18.7,3.8
	c-8.6,3.7-15.9,9.7-21.1,17.4c-2.6,3.8-4.6,8.1-6,12.6c-1.4,4.5-2.2,9.3-2.2,14.3v2.7c-0.6-0.2-1.2-0.4-1.8-0.6
	c-4.5-1.4-9.3-2.2-14.3-2.2c-6.6,0-12.9,1.3-18.7,3.8c-8.6,3.7-15.9,9.7-21.1,17.4c-2.6,3.8-4.6,8.1-6,12.6
	c-1.4,4.5-2.2,9.3-2.2,14.3v143.4l-5.7-13.7c-0.3-0.6-0.3-0.7-0.6-1.3c-2.1-4-4.8-7.6-7.8-10.7c-4.6-4.7-10-8.2-15.8-10.5
	c-5.8-2.3-11.9-3.5-18.1-3.5c-8.4,0-17,2.1-24.7,6.5c-3.7,2.1-7.2,4.7-10.1,7.6c-4.5,4.4-7.9,9.7-10,15.3C65,235.1,64,241,64,246.9
	c0,7.7,1.6,15.3,4.3,22.7l52.7,144l0.3,0.7c5.4,12.9,12,25.6,20.5,37.3c6.3,8.8,13.8,17.1,22.5,24.6c13.1,11.2,29.1,20.3,48.2,26.4
	c19.2,6.2,41.5,9.5,67.6,9.5c23.8,0,46.3-4,66.8-12.1c15.4-6.1,29.5-14.6,42-25.4c9.4-8.1,17.8-17.5,25.2-28.1
	c11-15.9,19.5-34.6,25.3-55.7C445,369.6,448,346,448,320V144C448,137.4,446.7,131.1,444.2,125.3z M405.5,391.9
	c-5.1,15.1-11.7,28-19.8,38.9c-6,8.2-12.8,15.3-20.3,21.4c-11.2,9.1-24,16-38.3,20.7c-14.3,4.6-30.1,7-47.2,7
	c-20.8,0-38.1-2.3-52.5-6.4c-10.8-3-20-7-28-11.6c-12-7-21.4-15.7-29.3-25.8c-7.7-9.9-13.9-21.2-19.1-33.6l0,0l-52.7-144
	C96.7,254,96,250,96,246.9c0-1.6,0.2-3,0.5-4.2c0.4-1.8,1.1-3.2,2.1-4.5c1-1.3,2.3-2.6,4.5-3.8c2.8-1.6,5.9-2.4,8.9-2.4
	c2.9,0,5.7,0.7,8,2c1.1,0.6,2.1,1.4,3,2.3c0.9,0.9,1.6,1.9,2.2,3.1l35.2,84.9c1.8,6.8,8.1,11.9,15.4,11.9c7.7,0,14.2-5.6,15.7-12.9
	c0.3-1.4,0.4-2.8,0.3-4.2V96.1c0-2.3,0.4-4.3,1.3-6.2c1.2-2.9,3.3-5.3,5.8-7.1c1.3-0.9,2.7-1.5,4.2-2s3.1-0.7,4.8-0.7
	c2.3,0,4.3,0.4,6.2,1.3c2.9,1.2,5.3,3.3,7.1,5.8c0.9,1.3,1.5,2.7,2,4.2s0.7,3.1,0.7,4.8v143.9v1.1c0,8.8,7.2,16,16,16
	c8.8-0.2,16-7.4,16-16.2v-0.9V96V48c0-2.3,0.4-4.3,1.3-6.2c1.2-2.9,3.3-5.3,5.8-7.1c1.3-0.9,2.7-1.5,4.2-2s3.1-0.7,4.8-0.7
	c2.3,0,4.3,0.4,6.2,1.3c2.9,1.2,5.3,3.3,7.1,5.8c0.9,1.3,1.5,2.7,2,4.2s0.7,3.1,0.7,4.8v27.8c-0.1,1.4-0.2,2.8-0.2,4.2v160
	c0,8.8,7.2,16,16,16c0,0,0.1,0,0.1,0c0,0,0.1,0,0.1,0c8.8,0,15.9-7.3,15.9-16.1V78.3c0.2-1.6,0.5-3,1.2-4.4c1.2-2.9,3.3-5.3,5.8-7.1
	c1.3-0.9,2.7-1.5,4.2-2s3.1-0.7,4.8-0.7c2.3,0,4.3,0.4,6.2,1.3c2.9,1.2,5.3,3.3,7.1,5.8c0.9,1.3,1.5,2.7,2,4.2s0.7,3.1,0.7,4.8v61
	c-0.1,1-0.1,1.9-0.1,2.9v112c0,4.4,1.8,8.4,4.8,11.3c2.9,2.9,6.9,4.8,11.3,4.8c8.8-0.2,16-7.4,16-16.2V142.3c0.2-1.6,0.5-3,1.2-4.4
	c1.2-2.9,3.3-5.3,5.8-7.1c1.3-0.9,2.7-1.5,4.2-2s3.1-0.7,4.8-0.7c2.3,0,4.3,0.4,6.2,1.3c2.9,1.2,5.3,3.3,7.1,5.8
	c0.9,1.3,1.5,2.7,2,4.2s0.7,3.1,0.7,4.8V320C416,347.9,412.2,371.8,405.5,391.9z"/>
</svg>
